PathFileType	4	(X/Y/Z)	C:/Users/beibeiliu/ov580/test_trc/User2\sequence.38_training_dense_left.trc
DataRate	CameraRate	NumFrames	NumMarkers	Units	OrigDataRate	OrigDataStartFrame	OrigNumFrames
120	120	19	19	mm	120	27	105
Frame#	Time	ThumbCMC			ThumbMCP			ThumbIP			ThumbTip			IndexMCP			IndexPIP			IndexTip			MiddleMCP			MiddlePIP			MiddleTip			RingMCP			RingPIP			RingTip			PinkyMCP			PinkyPIP			PinkyTip			BackHand1			BackHand2			BackHand3	
		X0	Y0	Z0	X1	Y1	Z1	X2	Y2	Z2	X3	Y3	Z3	X4	Y4	Z4	X5	Y5	Z5	X6	Y6	Z6	X7	Y7	Z7	X8	Y8	Z8	X9	Y9	Z9	X10	Y10	Z10	X11	Y11	Z11	X12	Y12	Z12	X13	Y13	Z13	X14	Y14	Z14	X15	Y15	Z15	X16	Y16	Z16	X17	Y17	Z17	X18	Y18	Z18	
26	0.216667	-220.757	-23.0429	-48.5791	-211.068	6.76906	-68.9692	-191.745	23.8955	-91.2116	-170.956	31.9436	-104.571	-188.291	-32.585	-120.886	-167.529	-10.0305	-133.344	-154.291	16.8084	-124.627	-163.339	-55.4243	-123.271	-151.304	-35.3719	-147.322	-133.172	-7.43645	-157.541	-146.034	-60.2073	-111.896	-129.479	-43.0071	-133.045	-118.245	-12.805	-143.123	-127.2	-59.5474	-85.2183	-113.613	-40.4902	-107.779	-103.065	-20.2228	-119.423	-166.537	-76.8584	-56.7135	-181.232	-83.9647	-23.2377	-206.683	-66.6688	-53.1856	
27	0.225	-217.715	-25.0881	-47.2484	-212.676	8.25134	-65.7033	-192.414	28.4986	-92.514	-172.134	39.1691	-105.974	-183.8	-36.6615	-120.062	-169.357	-10.5172	-139.837	-150.458	13.0989	-134.559	-164.333	-52.1497	-124.53	-144.783	-35.1793	-147.664	-129.945	-2.95195	-160.413	-140.669	-59.7985	-107.682	-124.076	-40.5717	-130.824	-113.249	-15.6143	-140.211	-123.275	-58.6584	-82.8049	-111.493	-41.6714	-102.117	-100.456	-16.8168	-114.871	-169.483	-73.7674	-55.3312	-179.754	-81.2271	-23.5002	-202.995	-66.6678	-55.3095	
28	0.233333	-220.067	-20.1343	-50.5672	-210.979	9.21784	-62.2514	-192.954	33.4055	-84.0575	-173.609	45.6264	-96.1035	-182.669	-33.9376	-123.587	-168.468	-16.2474	-142.988	-148.043	12.2847	-150.751	-163.081	-48.0171	-120.382	-143.235	-29.4125	-148.33	-124.933	-6.40197	-158.382	-137.201	-52.6686	-108.335	-121.673	-35.9177	-129.438	-109.768	-10.8625	-138.861	-123.316	-53.2693	-81.5898	-102.746	-34.9896	-98.8312	-92.4443	-11.9189	-110.537	-163.887	-73.1954	-57.8183	-182.36	-79.5503	-24.642	-203.774	-65.3898	-54.6964	
29	0.241667	-219.362	-17.3507	-46.4876	-207.924	13.288	-61.9282	-195.195	42.2672	-80.1088	-173.751	56.1983	-91.6083	-182.063	-32.6333	-121.205	-171.689	-15.7434	-146.074	-155.508	8.71758	-161.784	-156.09	-45.4326	-120.966	-139.386	-26.3676	-145.439	-120.968	2.25646	-159.654	-135.53	-48.0851	-105.883	-117.702	-31.9502	-124.826	-102.041	-7.54213	-134.433	-122.085	-48.7555	-80.0113	-99.3681	-32.812	-96.8	-88.681	-10.0803	-108.022	-168.798	-67.9354	-55.3273	-181.638	-74.8457	-27.8659	-204.485	-61.0268	-55.4486	
30	0.25	-214.471	-18.0981	-48.5062	-207.161	16.7619	-62.9364	-188.55	38.8933	-76.1103	-167.597	53.7996	-90.1431	-185.333	-30.6224	-125.358	-171.859	-20.0909	-144.773	-153.738	1.79854	-165.691	-155.834	-43.0149	-117.233	-135.677	-21.3929	-141.567	-118.215	7.11008	-147.415	-134.11	-48.2598	-106.597	-114.208	-30.4888	-123.183	-105.632	-1.76848	-133.653	-119.113	-50.5758	-79.1835	-99.3036	-37.9583	-93.289	-82.5852	-16.7025	-110.193	-163.666	-71.1424	-56.8052	-180.3	-76.7392	-26.1099	-202.22	-61.728	-55.7332	
31	0.258333	-216.551	-19.0958	-45.3442	-205.973	16.2554	-61.1828	-186.034	35.2379	-77.119	-166.188	51.4897	-91.5234	-184.145	-34.9173	-123.304	-176	-22.0242	-145.827	-159.312	-3.21402	-165.561	-156.6	-37.3382	-119.9	-137.862	-10.6999	-134.561	-123.592	22.4423	-131.492	-135.286	-49.0061	-102.853	-120.635	-31.4765	-121.137	-108.206	-0.183826	-129.857	-121.293	-54.7226	-75.0441	-98.0885	-44.3006	-94.2405	-85.1793	-30.9192	-108.979	-166.793	-72.0967	-55.4077	-183.299	-76.7513	-24.9599	-206.348	-59.6596	-56.2231	
32	0.266667	-216.19	-19.42	-46.4282	-204.231	12.2971	-61.2217	-183.729	35.3202	-80.0833	-159.903	42.2531	-92.4336	-189.164	-37.4266	-119.415	-174.284	-25.9728	-146.045	-157.063	-9.53561	-165.238	-156.3	-37.9615	-114.763	-137.277	-8.81886	-128.536	-128.053	25.4475	-115.974	-139.183	-49.5399	-104.818	-120.789	-32.0547	-120.757	-110.42	-0.645456	-126.243	-120.885	-57.193	-75.8492	-103.024	-48.0162	-96.7756	-84.416	-35.8214	-113.524	-166.713	-73.392	-55.8092	-184.009	-77.5035	-24.6662	-202.38	-62.8207	-52.3585	
33	0.275	-219.381	-18.4705	-47.1335	-203.224	12.8175	-64.3763	-178.609	33.1959	-85.1121	-157.37	38.5959	-93.3592	-184.511	-39.6447	-119.581	-171.526	-29.4719	-145.591	-155.535	-11.6759	-165.287	-155.988	-34.8384	-116.33	-137.197	-6.56165	-124.466	-129.866	25.3018	-109.292	-138.269	-48.0664	-106.648	-121.146	-30.1453	-120.187	-110.538	3.42584	-123.886	-119.441	-58.8476	-79.0365	-102.767	-49.4205	-97.1773	-83.5972	-43.1259	-111.366	-170.334	-72.3806	-57.442	-183.169	-78.5544	-29.1066	-204.21	-64.695	-55.0416	
34	0.283333	-217.389	-19.1788	-46.9434	-203.393	14.351	-63.1986	-180.245	32.186	-82.0435	-154.767	36.2926	-94.3468	-186.239	-39.5295	-119.821	-168.713	-28.4788	-148.136	-154.276	-15.8853	-163.875	-154.979	-34.7819	-117.763	-135.016	-4.05287	-123.023	-130.411	28.8194	-103.93	-136.493	-50.3877	-104.992	-121.518	-27.712	-123.363	-110.197	4.52107	-123.8	-123.192	-58.5789	-75.111	-101.337	-51.6498	-97.957	-84.9697	-43.1689	-115.171	-170.28	-71.9409	-57.2456	-183.845	-78.5153	-25.0685	-203.007	-64.142	-54.8541	
35	0.291667	-218.748	-17.3936	-45.7256	-201.631	13.0767	-65.7508	-180.143	30.8563	-81.9325	-154.954	37.3007	-93.6392	-187.126	-39.9894	-122.184	-172.89	-27.6175	-150.486	-156.28	-15.6996	-165.177	-151.98	-37.5075	-117.545	-136.729	-5.71067	-126.223	-129.571	26.7481	-110.73	-135.956	-51.0617	-105.35	-119.808	-28.7552	-124.044	-111.505	0.693543	-125.92	-120.337	-60.842	-79.8705	-100.364	-53.1884	-98.6939	-83.5864	-45.3005	-111.41	-167.435	-73.6922	-58.4621	-182.116	-80.1014	-26.8836	-203.711	-62.2918	-53.0749	
36	0.3	-219.214	-17.3829	-46.9967	-202.549	12.7669	-64.7687	-182.452	33.1298	-80.8651	-159.271	46.1271	-95.9541	-182.782	-40.6123	-121.312	-171.688	-32.0207	-145.607	-153.913	-17.2019	-165.405	-155.509	-40.2877	-117.728	-138.647	-11.9113	-131.728	-123.5	20.3782	-117.91	-137	-52.4509	-103.628	-120.984	-34.3625	-122.431	-109.613	1.4292	-129.231	-121.18	-59.303	-80.4375	-101.715	-53.0263	-97.7493	-80.1356	-45.6906	-112.47	-165.837	-72.9934	-53.9775	-181.871	-79.3428	-28.0523	-202.772	-62.2809	-53.7123	
37	0.308333	-216.984	-17.4628	-48.1085	-203.234	14.1659	-65.0699	-185.159	36.0048	-79.0144	-164.116	50.641	-93.7206	-181.901	-38.3179	-124.934	-171.678	-28.1546	-148.853	-157.685	-11.9543	-168.179	-155.323	-42.4404	-116.235	-136.473	-15.3724	-134.097	-121.131	16.5934	-125.886	-135.557	-53.4549	-102.95	-120.003	-32.9224	-125.819	-103.668	-2.56316	-131.03	-122.538	-59.6786	-74.1098	-99.7237	-53.6103	-92.9182	-85.09	-47.3035	-111.135	-170.606	-70.4268	-53.7674	-179.719	-79.8214	-25.502	-205.682	-60.6666	-56.8261	
38	0.316667	-216.325	-18.6334	-47.2796	-206.525	17.0915	-62.4642	-186.926	39.6682	-80.7325	-165.334	49.5454	-89.9648	-185.454	-37.6212	-120.941	-175.506	-24.4553	-149.519	-156.472	-11.0791	-167.369	-160.413	-41.207	-118.828	-137.47	-16.3446	-136.766	-119.896	17.8762	-131.398	-138.395	-52.1347	-106.175	-120.116	-36.4178	-125.5	-106.094	-8.24397	-133.872	-121.643	-57.8252	-77.7828	-99.058	-53.525	-92.4339	-78.0984	-46.0089	-111.865	-166.896	-69.8974	-52.8626	-183.9	-76.5631	-27.6903	-206.757	-61.0276	-55.9678	
39	0.325	-215.894	-19.1773	-46.9204	-204.952	12.4703	-60.338	-185.082	38.6496	-82.3628	-161.823	49.7655	-96.2238	-183.735	-36.2473	-125.415	-175.779	-26.0436	-146.97	-157.803	-7.39904	-168.162	-155.098	-41.6727	-120.526	-136.809	-14.9265	-137.254	-120.991	13.7129	-133.589	-139.888	-52.4444	-106.09	-119.595	-36.3536	-125.86	-103.586	-7.78416	-135.401	-119.734	-58.5781	-78.8038	-98.5126	-52.5912	-95.0017	-79.229	-42.1863	-112.372	-170.064	-70.7701	-55.2949	-180.936	-76.8878	-26.4684	-207.55	-59.9931	-53.7831	
40	0.333333	-219.344	-15.0623	-48.7973	-204.424	13.817	-64.0086	-185.719	37.3811	-83.75	-162.703	48.3727	-96.6755	-183.259	-37.401	-125.244	-174.447	-23.6176	-148.048	-156.193	-7.95617	-164.779	-156.074	-40.584	-119.403	-137.991	-14.8585	-135.486	-126.523	20.1179	-130.167	-137.156	-53.0845	-105.128	-120.781	-37.0057	-125.879	-107.727	-4.71698	-135.401	-123.965	-58.2643	-77.96	-99.3848	-52.8818	-93.4781	-83.0292	-44.5064	-113.579	-165.067	-71.4751	-56.3875	-181.994	-76.9576	-26.1669	-205.103	-62.3306	-53.601	
41	0.341667	-220.21	-16.7521	-47.8981	-204.684	11.7551	-60.6662	-182.723	36.3947	-85.7802	-158.464	40.1108	-97.0673	-186.692	-36.53	-121.972	-175.668	-24.7987	-145.498	-156.007	-6.85211	-161.237	-155.054	-39.1302	-118.742	-137.806	-10.4791	-131.701	-124.451	22.0645	-117.12	-137.113	-53.3246	-103.86	-123.267	-34.1448	-124.923	-111.817	-2.92726	-131.977	-120.852	-59.7169	-76.7575	-100.553	-52.7689	-95.6442	-80.3532	-44.197	-114.1	-168.153	-70.8006	-55.1532	-184.482	-75.6855	-26.7076	-207.918	-61.0088	-52.1511	
42	0.35	-216.826	-18.0182	-48.8472	-206.298	13.0923	-65.0147	-179.44	28.9288	-86.3101	-157.401	34.3362	-95.9858	-189.657	-37.6044	-122.378	-173.816	-23.0516	-147.855	-155.233	-2.10629	-163.296	-154.934	-37.5376	-118.527	-135.919	-8.86156	-127.397	-131.277	26.8544	-110.144	-138.242	-52.7593	-103.764	-118.772	-32.9458	-123.039	-112.203	-1.34831	-128.74	-122.368	-59.8917	-77.4372	-103.08	-53.8386	-97.5889	-86.4209	-46.6563	-115.974	-170.521	-71.6954	-52.9431	-183.921	-76.6296	-24.4908	-207.212	-61.8858	-51.409	
43	0.358333	-219.078	-18.327	-47.8537	-203.905	8.90424	-65.4316	-183.627	28.5832	-85.1176	-155.254	32.7444	-99.8607	-185.018	-40.2788	-122.844	-177.743	-26.5836	-147.163	-157.966	-7.41656	-161.63	-156.535	-41.6649	-115.595	-139.136	-8.27995	-130.136	-130.435	21.4916	-111.917	-139.53	-53.1563	-107.794	-123.279	-36.9353	-124.435	-110.855	-3.23156	-127.927	-125.571	-61.0013	-82.0298	-105.366	-56.2109	-98.4043	-90.3096	-49.8177	-115.934	-171.054	-71.9228	-56.3339	-181.633	-79.0782	-23.5985	-209.21	-61.7586	-51.2474	
44	0.366667	-216.846	-21.0047	-45.0084	-205.803	12.2116	-65.6026	-182.327	31.1764	-90.2785	-157.444	31.1658	-98.5699	-189.25	-39.7793	-121.823	-177.493	-28.9006	-147.056	-156.551	-6.69298	-162.77	-162.406	-43.9268	-117.848	-141.059	-18.2047	-134.323	-129.829	18.0837	-122.417	-139.697	-55.5981	-108.976	-124.95	-40.4745	-126.599	-111.607	-6.9071	-131.48	-128.743	-62.1426	-78.8805	-104.731	-57.7199	-101.753	-91.1748	-47.7804	-122.928	-171.034	-71.9787	-54.2163	-185.696	-77.095	-26.5401	-209.301	-62.3695	-55.31	
